<svg xmlns="http://www.w3.org/2000/svg" viewBox="-0.5 -0.5 16 16" fill="#ffffff" id="Bell--Streamline-Tabler-Filled.svg" height="16" width="16"><desc>Bell Streamline Icon: https://streamlinehq.com</desc><path d="M9.14275 12.645C9.7785 12.645 10.1144375 13.397625 9.690312500000001 13.871C9.1330625 14.494562499999999 8.33625 14.8506875 7.5 14.850000000000001C6.66375 14.8506875 5.866937500000001 14.494562499999999 5.3096875 13.871C4.904 13.41825 5.1935625 12.710437500000001 5.7756875 12.650125000000001L5.8565625 12.64575H9.14275Z" stroke-width="1"></path><path d="M7.5 0.15C8.498125 0.15 9.3419375 0.8136875 9.613125 1.723625L9.6469375 1.8493125L9.6528125 1.8809375C11.2964375 2.8081250000000004 12.396125 4.46675 12.6105 6.341625L12.6310625 6.5525625L12.645 6.765V8.9193125L12.660437499999999 9.01925C12.7610625 9.5608125 13.0608125 10.045124999999999 13.5005625 10.376812500000002L13.6233125 10.4628125L13.742375 10.5355625C14.3745 10.8935 14.154 11.833562500000001 13.46525 11.9055625L13.38 11.91H1.62C0.8644375 11.91 0.6005625 10.907437499999999 1.2576875 10.5355625C1.8245624999999999 10.214749999999999 2.220625 9.6596875 2.3395625 9.01925L2.355 8.914125L2.35575 6.7311875C2.44675 4.781874999999999 3.498875 3.00475 5.164187500000001 1.9875L5.3464374999999995 1.8801875000000001L5.3538125 1.8485624999999999C5.566750000000001 0.9483750000000001 6.3185 0.2764375 7.236875 0.1654375L7.3706249999999995 0.1529375L7.5 0.15Z" stroke-width="1"></path></svg>