<svg xmlns="http://www.w3.org/2000/svg" viewBox="-0.5 -0.5 16 16" fill="#ffffff" id="Layout-Grid--Streamline-Tabler-Filled.svg" height="16" width="16"><desc>Layout Grid Streamline Icon: https://streamlinehq.com</desc><path d="M5.05 0.15C5.9520625 0.15006250000000002 6.6833125 0.8813124999999999 6.6833125 1.7833125V5.05C6.6833125 5.9520625 5.9520625 6.6833125 5.05 6.6833125H1.7833125C0.88125 6.683375 0.15 5.9520625 0.15 5.05V1.7833125C0.15 0.88125 0.88125 0.15 1.7833125 0.15Z" stroke-width="1"></path><path d="M13.216687499999999 0.15C14.11875 0.1499375 14.850000000000001 0.88125 14.850000000000001 1.7833125V5.05C14.850000000000001 5.9520625 14.11875 6.683375 13.216687499999999 6.6833125H9.95C9.0479375 6.683375 8.3166875 5.9520625 8.3166875 5.05V1.7833125C8.3166875 0.88125 9.0479375 0.15 9.95 0.15Z" stroke-width="1"></path><path d="M5.05 8.3166875C5.9520625 8.3166875 6.6833125 9.0479375 6.6833125 9.95V13.216687499999999C6.6833125 14.1186875 5.9520625 14.8499375 5.05 14.850000000000001H1.7833125C0.88125 14.8500625 0.15 14.11875 0.15 13.216687499999999V9.95C0.15 9.0479375 0.88125 8.316625 1.7833125 8.3166875Z" stroke-width="1"></path><path d="M13.216687499999999 8.3166875C14.11875 8.316625 14.850000000000001 9.0479375 14.850000000000001 9.95V13.216687499999999C14.850000000000001 14.11875 14.11875 14.8500625 13.216687499999999 14.850000000000001H9.95C9.0479375 14.8500625 8.3166875 14.11875 8.3166875 13.216687499999999V9.95C8.3166875 9.0479375 9.0479375 8.316625 9.95 8.3166875Z" stroke-width="1"></path></svg>